<svg id="Livello_1" data-name="Livello 1" xmlns="http://www.w3.org/2000/svg" viewBox="0 0 192.09 103.15"><defs><style>.cls-1{fill:#fff;}</style></defs><polygon class="cls-1" points="192.09 0.11 192.09 103.15 172.19 103.15 172.19 34.7 171.89 35.29 146.79 84.4 144.55 88.77 129.03 88.77 126.79 84.4 101.69 35.29 101.61 35.13 101.61 103.15 81.71 103.15 81.71 0.11 83.71 0.11 105.62 0 136.79 63.9 167.97 0 168.19 0 189.87 0.11 192.09 0.11"/><polygon class="cls-1" points="19.9 86.98 19.9 0.11 0 0.11 0 86.98 0 103.15 19.9 103.15 64.83 103.15 64.83 86.98 19.9 86.98"/><polygon class="cls-1" points="101.69 35.29 101.61 35.29 101.61 35.13 101.69 35.29"/></svg>